HIERARCHY
ROOT hip
{
	OFFSET 0.000000 0.000000 0.000000
	CHANNELS 6 Xposition Yposition Zposition Xrotation Zrotation Yrotation 
	JOINT abdomen
	{
		OFFSET 0.000000 3.422050 0.000000
		CHANNELS 3 Xrotation Zrotation Yrotation 
		JOINT chest
		{
			OFFSET 0.000000 8.486693 -0.684411
			CHANNELS 3 Xrotation Zrotation Yrotation 
			JOINT neck
			{
				OFFSET 0.000000 10.266162 -0.273764
				CHANNELS 3 Xrotation Zrotation Yrotation 
				JOINT head
				{
					OFFSET 0.000000 3.148285 0.000000
					CHANNELS 3 Xrotation Zrotation Yrotation 
					End Site
					{
						OFFSET 0.000000 3.148289 0.000000
					}
				}
			}
			JOINT lCollar
			{
				OFFSET 3.422053 6.707223 -0.821293
				CHANNELS 3 Yrotation Zrotation Xrotation 
				JOINT lShldr
				{
					OFFSET 3.285171 0.000000 0.000000
					CHANNELS 3 Zrotation Yrotation Xrotation 
					JOINT lForeArm
					{
						OFFSET 10.129278 0.000000 0.000000
						CHANNELS 3 Yrotation Zrotation Xrotation 
						JOINT lHand
						{
							OFFSET 8.486692 0.000000 0.000000
							CHANNELS 3 Zrotation Yrotation Xrotation 
							End Site
							{
								OFFSET 4.106464 0.000000 0.000000
							}
						}
					}
				}
			}
			JOINT rCollar
			{
				OFFSET -3.558935 6.707223 -0.821293
				CHANNELS 3 Yrotation Zrotation Xrotation 
				JOINT rShldr
				{
					OFFSET -3.148289 0.000000 0.000000
					CHANNELS 3 Zrotation Yrotation Xrotation 
					JOINT rForeArm
					{
						OFFSET -10.266159 0.000000 0.000000
						CHANNELS 3 Yrotation Zrotation Xrotation 
						JOINT rHand
						{
							OFFSET -8.349810 0.000000 0.000000
							CHANNELS 3 Zrotation Yrotation Xrotation 
							End Site
							{
								OFFSET -4.106464 0.000000 0.000000
							}
						}
					}
				}
			}
		}
	}
	JOINT lThigh
	{
		OFFSET 5.338403 -1.642589 1.368821
		CHANNELS 3 Xrotation Zrotation Yrotation 
		JOINT lShin
		{
			OFFSET -2.053232 -20.121670 0.000000
			CHANNELS 3 Xrotation Zrotation Yrotation 
			JOINT lFoot
			{
				OFFSET 0.000000 -19.300380 -1.231939
				CHANNELS 3 Xrotation Yrotation Zrotation 
				End Site
				{
					OFFSET 0.000000 -2.463878 4.653993
				}
			}
		}
	}
	JOINT rThigh
	{
		OFFSET -5.338403 -1.642589 1.368821
		CHANNELS 3 Xrotation Zrotation Yrotation 
		JOINT rShin
		{
			OFFSET 2.053232 -20.121670 0.000000
			CHANNELS 3 Xrotation Zrotation Yrotation 
			JOINT rFoot
			{
				OFFSET 0.000000 -19.300380 -1.231939
				CHANNELS 3 Xrotation Yrotation Zrotation 
				End Site
				{
					OFFSET 0.000000 -2.463878 4.653993
				}
			}
		}
	}
}
MOTION
Frames: 8
Frame Time: 0.022217
0.000000 3.996296 -28.003838 -90.001877 0.000000 0.000000 23.005125 0.000000 0.000000 21.109144 -0.120260 -0.639318 -13.644163 0.000000 0.000000 -36.063629 0.000000 0.000000 8.296603 1.113999 -0.508013 -77.229584 30.365656 0.545926 -75.092552 -0.203904 33.997337 -6.553131 0.008730 23.255665 -8.303648 -1.055696 -0.514598 77.178101 -30.363821 0.561475 75.084381 0.190022 33.999241 6.555123 -0.017397 23.253914 -1.045571 19.725222 0.450914 10.550660 -1.880693 -0.098376 13.611595 2.328721 5.489282 -0.821916 -19.807247 -0.507944 10.434243 1.908611 0.088474 13.611374 -2.332613 -5.492354 
0.000000 3.996296 -28.003838 -90.001877 0.000000 0.000000 22.471979 0.000000 0.000000 22.967291 -0.120202 -0.639254 -14.177506 0.000000 0.000000 -36.818718 0.000000 0.000000 7.992069 1.571056 -1.352281 -77.699028 30.439831 0.359486 -75.183693 -0.405733 33.995884 -6.102364 -0.179314 22.910492 -8.001825 -1.450862 -1.365468 77.614647 -30.433626 0.387883 75.170265 0.381756 33.997486 6.110529 0.164710 22.907282 -1.268411 19.646582 0.397871 10.892569 -1.779360 -0.115667 13.611595 2.328721 5.489282 -0.821916 -19.807247 -0.507944 10.659811 1.838437 0.099983 13.611374 -2.332613 -5.492354 
0.000000 3.996296 -28.003838 -90.001877 0.000000 0.000000 21.938711 0.000000 0.000000 24.830877 -0.120145 -0.639189 -14.710281 0.000000 0.000000 -37.572163 0.000000 0.000000 7.693978 2.032943 -2.195045 -78.169151 30.512691 0.172189 -75.274818 -0.607562 33.994091 -5.650329 -0.364688 22.563745 -7.705608 -1.850792 -2.215115 78.051811 -30.502296 0.213531 75.256149 0.573496 33.995441 5.664701 0.344171 22.559124 -1.491073 19.567741 0.345176 11.234467 -1.677915 -0.132353 13.611595 2.328721 5.489282 -0.821916 -19.807247 -0.507944 10.885369 1.768214 0.111216 13.611373 -2.332613 -5.492353 
0.000000 3.996296 -28.003838 -90.001877 0.000000 0.000000 21.405346 0.000000 0.000000 26.698942 -0.120090 -0.639121 -15.242452 0.000000 0.000000 -38.323910 0.000000 0.000000 7.402418 2.499488 -3.036256 -78.639984 30.584251 -0.015967 -75.365967 -0.809398 33.991985 -5.197057 -0.547362 22.215448 -7.415086 -2.255338 -3.063467 78.489578 -30.569830 0.038435 75.342064 0.765239 33.993114 5.217671 0.520956 22.209492 -1.713558 19.488703 0.292831 11.576347 -1.576362 -0.148433 13.611595 2.328721 5.489282 -0.821916 -19.807247 -0.507944 11.110913 1.697945 0.122173 13.611375 -2.332613 -5.492354 
0.000000 3.996296 -28.003838 -90.001877 0.000000 0.000000 20.871891 0.000000 0.000000 28.570503 -0.120038 -0.639052 -15.774014 0.000000 0.000000 -39.073887 0.000000 0.000000 7.117481 2.970515 -3.875869 -79.111465 30.654474 -0.204950 -75.457130 -1.011234 33.989548 -4.742582 -0.727306 21.865637 -7.130356 -2.664351 -3.910459 78.927902 -30.636206 -0.137387 75.427979 0.956982 33.990490 4.769475 0.695037 21.858423 -1.935864 19.409479 0.240836 11.918205 -1.474709 -0.163908 13.611595 2.328721 5.489282 -0.821916 -19.807247 -0.507944 11.336442 1.627632 0.132852 13.611374 -2.332613 -5.492354 
0.000000 3.996296 -28.003838 -90.001877 0.000000 0.000000 20.338388 0.000000 0.000000 30.444571 -0.119988 -0.638981 -16.304934 0.000000 0.000000 -39.822044 0.000000 0.000000 6.839249 3.445845 -4.713842 -79.583572 30.723352 -0.394747 -75.548325 -1.213071 33.986805 -4.286933 -0.904490 21.514351 -6.851505 -3.077675 -4.756026 79.366791 -30.701431 -0.313926 75.513924 1.148723 33.987587 4.320141 0.866386 21.505932 -2.157990 19.330063 0.189191 12.260037 -1.372960 -0.178775 13.611595 2.328721 5.489282 -0.821916 -19.807247 -0.507944 11.561954 1.557275 0.143255 13.611373 -2.332613 -5.492353 
0.000000 3.996296 -28.003838 -90.001877 0.000000 0.000000 19.804842 0.000000 0.000000 32.320137 -0.119940 -0.638908 -16.835197 0.000000 0.000000 -40.568329 0.000000 0.000000 6.567801 3.925295 -5.550138 -80.056328 30.790895 -0.585345 -75.639534 -1.414906 33.983738 -3.830144 -1.078885 21.161613 -6.578621 -3.495156 -5.600113 79.806221 -30.765488 -0.491167 75.599884 1.340462 33.984394 3.869703 1.034976 21.152067 -2.379934 19.250452 0.137897 12.601841 -1.271122 -0.193035 13.611595 2.328721 5.489282 -0.821916 -19.807247 -0.507944 11.787449 1.486877 0.153380 13.611374 -2.332613 -5.492354 
0.000000 3.996296 -28.003838 -90.001877 0.000000 0.000000 19.271286 0.000000 0.000000 34.196213 -0.119894 -0.638834 -17.364773 0.000000 0.000000 -41.312668 0.000000 0.000000 6.303215 4.408682 -6.384725 -80.529655 30.857084 -0.776718 -75.730751 -1.616733 33.980343 -3.372251 -1.250465 20.807467 -6.311779 -3.916633 -6.442659 80.246185 -30.828384 -0.669092 75.685844 1.532199 33.980907 3.418193 1.200780 20.796856 -2.601696 19.170654 0.086955 12.943610 -1.169200 -0.206687 13.611595 2.328721 5.489282 -0.821916 -19.807247 -0.507944 12.012927 1.416439 0.163227 13.611373 -2.332613 -5.492353 
